REM DIRINDEX 1\2\6,1\2\7,1\2\8,1\2\9,1\3\10,1\3\11,1\4\12,1\4\13,1\4\14,1\5\15,1\5\16,1\5\17
REM DIRNAME cjc029,folder01,folder02,folder03,folder04,folder05,folder06,folder07,folder08,folder09,folder10,folder11,folder12,folder13,folder14,folder15,folder16
TITLE ""
FILE "1400_2_sec11_1017_1033.mp3" MP3
  TRACK 01 AUDIO
    TITLE "0:"
    INDEX 01 00:00:00
  TRACK 02 AUDIO
    TITLE "13:cjc029_3642"
    INDEX 01 00:00:19
  TRACK 03 AUDIO
    TITLE "0:"
    INDEX 01 00:01:42
  TRACK 04 AUDIO
    TITLE "14:cjc029_3643"
    INDEX 01 00:01:46
  TRACK 05 AUDIO
    TITLE "0:"
    INDEX 01 00:02:51
  TRACK 06 AUDIO
    TITLE "13:cjc029_3644"
    INDEX 01 00:03:33
  TRACK 07 AUDIO
    TITLE "0:"
    INDEX 01 00:04:46
  TRACK 08 AUDIO
    TITLE "14:cjc029_3645"
    INDEX 01 00:04:52
  TRACK 09 AUDIO
    TITLE "0:"
    INDEX 01 00:05:65
  TRACK 10 AUDIO
    TITLE "13:cjc029_3646"
    INDEX 01 00:06:45
  TRACK 11 AUDIO
    TITLE "0:"
    INDEX 01 00:07:66
  TRACK 12 AUDIO
    TITLE "14:cjc029_3647"
    INDEX 01 00:08:01
  TRACK 13 AUDIO
    TITLE "0:"
    INDEX 01 00:10:45
  TRACK 14 AUDIO
    TITLE "13:cjc029_3648"
    INDEX 01 00:11:27
  TRACK 15 AUDIO
    TITLE "0:"
    INDEX 01 00:12:36
  TRACK 16 AUDIO
    TITLE "14:cjc029_3649"
    INDEX 01 00:12:42
  TRACK 17 AUDIO
    TITLE "0:"
    INDEX 01 00:18:21
  TRACK 18 AUDIO
    TITLE "13:cjc029_3650"
    INDEX 01 00:19:03
  TRACK 19 AUDIO
    TITLE "0:"
    INDEX 01 00:20:26
  TRACK 20 AUDIO
    TITLE "14:cjc029_3651"
    INDEX 01 00:20:30
  TRACK 21 AUDIO
    TITLE "0:"
    INDEX 01 00:21:72
  TRACK 22 AUDIO
    TITLE "13:cjc029_3652"
    INDEX 01 00:22:52
  TRACK 23 AUDIO
    TITLE "0:"
    INDEX 01 00:23:55
  TRACK 24 AUDIO
    TITLE "14:cjc029_3653"
    INDEX 01 00:23:59
  TRACK 25 AUDIO
    TITLE "0:"
    INDEX 01 00:26:30
  TRACK 26 AUDIO
    TITLE "13:cjc029_3654"
    INDEX 01 00:27:12
  TRACK 27 AUDIO
    TITLE "0:"
    INDEX 01 00:28:21
  TRACK 28 AUDIO
    TITLE "14:cjc029_3655"
    INDEX 01 00:28:23
  TRACK 29 AUDIO
    TITLE "0:"
    INDEX 01 00:29:42
  TRACK 30 AUDIO
    TITLE "13:cjc029_3656"
    INDEX 01 00:30:26
  TRACK 31 AUDIO
    TITLE "0:"
    INDEX 01 00:31:31
  TRACK 32 AUDIO
    TITLE "14:cjc029_3657"
    INDEX 01 00:31:35
  TRACK 33 AUDIO
    TITLE "0:"
    INDEX 01 00:35:27
  TRACK 34 AUDIO
    TITLE "13:cjc029_3658"
    INDEX 01 00:36:09
  TRACK 35 AUDIO
    TITLE "0:"
    INDEX 01 00:37:32
  TRACK 36 AUDIO
    TITLE "14:cjc029_3659"
    INDEX 01 00:37:38
  TRACK 37 AUDIO
    TITLE "0:"
    INDEX 01 00:38:41
  TRACK 38 AUDIO
    TITLE "13:cjc029_3660"
    INDEX 01 00:39:23
  TRACK 39 AUDIO
    TITLE "0:"
    INDEX 01 00:40:21
  TRACK 40 AUDIO
    TITLE "14:cjc029_3661"
    INDEX 01 00:40:26
  TRACK 41 AUDIO
    TITLE "0:"
    INDEX 01 00:41:36
  TRACK 42 AUDIO
    TITLE "13:cjc029_3662"
    INDEX 01 00:42:18
  TRACK 43 AUDIO
    TITLE "0:"
    INDEX 01 00:43:54
  TRACK 44 AUDIO
    TITLE "14:cjc029_3663"
    INDEX 01 00:43:62
  TRACK 45 AUDIO
    TITLE "0:"
    INDEX 01 00:45:33
  TRACK 46 AUDIO
    TITLE "13:cjc029_3664"
    INDEX 01 00:46:15
  TRACK 47 AUDIO
    TITLE "0:"
    INDEX 01 00:47:30
  TRACK 48 AUDIO
    TITLE "14:cjc029_3665"
    INDEX 01 00:47:34
  TRACK 49 AUDIO
    TITLE "0:"
    INDEX 01 00:50:11
  TRACK 50 AUDIO
    TITLE "13:cjc029_3666"
    INDEX 01 00:50:74
  TRACK 51 AUDIO
    TITLE "0:"
    INDEX 01 00:52:24
  TRACK 52 AUDIO
    TITLE "14:cjc029_3667"
    INDEX 01 00:52:28
  TRACK 53 AUDIO
    TITLE "0:"
    INDEX 01 00:56:39
  TRACK 54 AUDIO
    TITLE "13:cjc029_3668"
    INDEX 01 00:57:21
  TRACK 55 AUDIO
    TITLE "0:"
    INDEX 01 00:58:44
  TRACK 56 AUDIO
    TITLE "14:cjc029_3669"
    INDEX 01 00:58:54
  TRACK 57 AUDIO
    TITLE "0:"
    INDEX 01 01:03:57
  TRACK 58 AUDIO
    TITLE "13:cjc029_3670"
    INDEX 01 01:04:41
  TRACK 59 AUDIO
    TITLE "0:"
    INDEX 01 01:05:38
  TRACK 60 AUDIO
    TITLE "14:cjc029_3671"
    INDEX 01 01:05:44
  TRACK 61 AUDIO
    TITLE "0:"
    INDEX 01 01:07:63
  TRACK 62 AUDIO
    TITLE "13:cjc029_3672"
    INDEX 01 01:08:46
  TRACK 63 AUDIO
    TITLE "0:"
    INDEX 01 01:09:38
  TRACK 64 AUDIO
    TITLE "14:cjc029_3673"
    INDEX 01 01:09:44
  TRACK 65 AUDIO
    TITLE "0:"
    INDEX 01 01:10:33
  TRACK 66 AUDIO
    TITLE "13:cjc029_3674"
    INDEX 01 01:11:15
  TRACK 67 AUDIO
    TITLE "0:"
    INDEX 01 01:12:30
  TRACK 68 AUDIO
    TITLE "14:cjc029_3675"
    INDEX 01 01:12:32
  TRACK 69 AUDIO
    TITLE "0:"
    INDEX 01 01:15:54
